<svg width="40" height="40" viewBox="0 0 40 40" fill="none" xmlns="http://www.w3.org/2000/svg">
<g clip-path="url(#clip0_17_5232)">
<path d="M20 0C31.0457 0 40 8.95431 40 20C40 30.2254 32.3259 38.6574 22.423 39.8535V26.1117L27.8334 26.1117L28.9557 20H22.423V17.8385C22.423 16.2236 22.7398 15.1056 23.4664 14.3914C24.1931 13.6771 25.3298 13.3665 26.9695 13.3665C27.3845 13.3665 27.7665 13.3707 28.1054 13.3789C28.5984 13.3909 29.0003 13.4117 29.2801 13.4411V7.90079C29.1683 7.86973 29.0363 7.83868 28.8884 7.8081C28.5534 7.73884 28.137 7.67207 27.6894 7.61343C26.7539 7.49089 25.6821 7.40384 24.9323 7.40384C21.904 7.40384 19.6153 8.05171 18.0178 9.39365C16.0898 11.0132 15.1685 13.6437 15.1685 17.3665V20H11.0443V26.1117H15.1685V39.411C6.45719 37.2497 0 29.3796 0 20C0 8.95431 8.95431 0 20 0Z" fill="#483E3B"/>
</g>
<defs>
<clipPath id="clip0_17_5232">
<rect width="40" height="40" fill="white"/>
</clipPath>
</defs>
</svg>
