<svg width="52" height="52" viewBox="0 0 52 52" fill="none" xmlns="http://www.w3.org/2000/svg">
<rect width="52" height="52" rx="26" fill="#51463A"/>
<path d="M35.5928 18.5332C34.4007 18.5355 33.4315 17.5703 33.4291 16.3782C33.4268 15.1861 34.392 14.2169 35.5846 14.2145C36.7773 14.2122 37.7465 15.178 37.7489 16.3701C37.7506 17.5621 36.7854 18.5309 35.5928 18.5332Z" fill="#F9F6F3"/>
<path fill-rule="evenodd" clip-rule="evenodd" d="M26.0172 35.2415C20.9136 35.2514 16.7677 31.1223 16.7578 26.0175C16.7478 20.9138 20.878 16.7672 25.9816 16.7573C31.0864 16.7474 35.233 20.8788 35.2429 25.9819C35.2528 31.0867 31.1214 35.2316 26.0172 35.2415ZM25.9881 20.0005C22.6755 20.0064 19.9939 22.6979 19.9997 26.0111C20.0062 29.3249 22.6982 32.0059 26.0108 31.9995C29.3246 31.993 32.0061 29.3021 31.9997 25.9883C31.9933 22.6745 29.3012 19.9941 25.9881 20.0005Z" fill="#F9F6F3"/>
<path fill-rule="evenodd" clip-rule="evenodd" d="M14.1788 8.96972C15.3219 8.52181 16.63 8.21504 18.5452 8.12465C20.4652 8.03251 21.0781 8.01151 25.9653 8.00218C30.8537 7.99285 31.4666 8.0115 33.3865 8.09665C35.3024 8.17946 36.6111 8.48157 37.7565 8.92482C38.9415 9.38146 39.947 9.99617 40.9489 10.994C41.9509 11.9931 42.5679 12.995 43.0304 14.1784C43.4777 15.3226 43.7844 16.6296 43.8754 18.546C43.9664 20.4653 43.9886 21.0777 43.9979 25.9656C44.0072 30.8529 43.9874 31.4664 43.9034 33.3875C43.82 35.3022 43.5185 36.6115 43.0753 37.7563C42.6174 38.9414 42.0039 39.9468 41.0061 40.9488C40.0082 41.9513 39.0051 42.5678 37.8218 43.0309C36.6775 43.4776 35.3706 43.7844 33.4554 43.8759C31.5355 43.9669 30.9225 43.9885 26.0335 43.9978C21.1469 44.0071 20.534 43.9885 18.6141 43.9039C16.6982 43.8199 15.389 43.5184 14.2441 43.0758C13.0591 42.6174 12.0536 42.0044 11.0517 41.006C10.0492 40.0075 9.43158 39.005 8.96969 37.8216C8.52179 36.678 8.21616 35.3704 8.12461 33.4557C8.03305 31.5352 8.01148 30.9217 8.00216 26.0344C7.9928 21.1465 8.01205 20.5342 8.09603 18.6142C8.1806 16.6978 8.48096 15.3891 8.92419 14.2431C9.38199 13.0586 9.99552 12.0537 10.9946 11.0512C11.9924 10.0492 12.9955 9.43103 14.1788 8.96972ZM15.4123 40.0518C16.0474 40.2962 17.0003 40.5878 18.7552 40.6642C20.6541 40.7464 21.2227 40.7645 26.0277 40.7552C30.8345 40.7464 31.4031 40.726 33.3014 40.6368C35.0545 40.5534 36.0074 40.2583 36.6408 40.011C37.4812 39.6826 38.0796 39.2902 38.7082 38.6609C39.3369 38.0292 39.7259 37.4291 40.0514 36.5887C40.2963 35.953 40.5873 34.9995 40.6637 33.2446C40.7471 31.3468 40.7646 30.7776 40.7553 25.9714C40.7466 21.1664 40.7261 20.5972 40.6357 18.6988C40.5529 16.9451 40.2584 15.9921 40.0105 15.3593C39.6822 14.5178 39.2909 13.9206 38.6599 13.2913C38.0288 12.662 37.4287 12.2742 36.5872 11.9487C35.9532 11.7032 34.9991 11.4128 33.2454 11.3364C31.3465 11.253 30.7773 11.2361 25.9711 11.2454C21.1661 11.2547 20.5975 11.274 18.6992 11.3638C16.9449 11.4472 15.9932 11.7417 15.3586 11.9896C14.5188 12.3179 13.9204 12.7081 13.2912 13.3397C12.6631 13.9713 12.2741 14.5703 11.9487 15.4124C11.7049 16.047 11.4115 17.0011 11.3363 18.7548C11.2535 20.6537 11.236 21.2229 11.2453 26.028C11.2541 30.8342 11.2745 31.4034 11.3637 33.3006C11.4459 35.0555 11.7428 36.0073 11.9895 36.6424C12.3178 37.4816 12.7092 38.08 13.3396 38.7093C13.9712 39.3362 14.5713 39.7264 15.4123 40.0518Z" fill="#F9F6F3"/>
</svg>
