<svg width="52" height="52" viewBox="0 0 52 52" fill="none" xmlns="http://www.w3.org/2000/svg">
<rect width="52" height="52" rx="26" fill="#51463A"/>
<g clip-path="url(#clip0_52_5374)">
<path fill-rule="evenodd" clip-rule="evenodd" d="M44 23.9136C44 15.9532 35.9411 9.5 25.9999 9.5C16.0587 9.5 7.99974 15.9532 8 23.9136C8 31.0092 14.4031 36.9071 22.8348 38.1049L22.8386 38.1054C23.0367 38.1335 23.2364 38.1582 23.4367 38.1812C25.2289 38.5545 24.9325 40.0951 24.6854 41.3788C24.5368 42.1513 24.406 42.8308 24.7592 43.1067C25.8406 43.9519 34.0337 38.4742 39.0114 33.8733C39.7318 33.27 40.3871 32.6164 40.9689 31.9203L40.9794 31.9089C41.1183 31.7559 41.2284 31.6174 41.3127 31.4921C43.016 29.2903 44 26.6942 44 23.9136ZM19.1871 28.5104H15.5568C15.0404 28.5104 14.6181 28.0879 14.6181 27.5714V20.6088C14.6181 20.0924 15.0404 19.67 15.5568 19.67H15.6351C16.1515 19.67 16.5739 20.0924 16.5739 20.6088V26.5544H19.1871C19.7035 26.5544 20.1259 26.9768 20.1259 27.4932V27.5715C20.1259 28.0879 19.7035 28.5104 19.1871 28.5104ZM38.0522 24.0678V24.1461C38.0522 24.6624 37.6297 25.0849 37.1133 25.0846H34.5002V26.571H37.1133C37.6297 26.571 38.0522 26.9934 38.0522 27.5098V27.5881C38.0522 28.1045 37.6297 28.527 37.1133 28.527H33.483C32.9666 28.527 32.5442 28.1045 32.5442 27.5881V20.6255C32.5442 20.1091 32.9666 19.6868 33.483 19.6868H37.1133C37.6297 19.6868 38.0522 20.1091 38.0522 20.6255V20.7038C38.0522 21.2202 37.6297 21.6426 37.1133 21.6426H34.5002V23.129H37.1133C37.6297 23.129 38.0522 23.5514 38.0522 24.0678ZM31.0706 28.2305C31.0149 28.2984 30.9358 28.3561 30.8419 28.4008C30.707 28.4728 30.5563 28.5105 30.4033 28.5104H30.325C30.1992 28.5104 30.0789 28.4852 29.9689 28.4397C29.8258 28.3861 29.6973 28.2983 29.6034 28.1702C29.5786 28.1403 29.5555 28.1087 29.5345 28.0759L26.1169 23.408V27.5716C26.1169 28.088 25.6945 28.5105 25.1781 28.5105H25.0998C24.5833 28.5105 24.1609 28.088 24.1609 27.5716V20.609C24.1609 20.0926 24.5834 19.6703 25.0998 19.6703H25.1781C25.5259 19.6703 25.8311 19.862 25.9932 20.145L29.3864 24.6961V20.609C29.3864 20.0926 29.8088 19.6703 30.3252 19.6703H30.4035C30.92 19.6703 31.3424 20.0926 31.3424 20.609V27.5716C31.3422 27.8183 31.2444 28.0553 31.0706 28.2305ZM21.9007 28.5104H21.8224C21.306 28.5104 20.8835 28.0879 20.8835 27.5715V20.6089C20.8835 20.0925 21.306 19.6702 21.8224 19.6702H21.9007C22.4171 19.6702 22.8394 20.0925 22.8394 20.6089V27.5715C22.8394 28.0879 22.4171 28.5104 21.9007 28.5104Z" fill="#F9F6F3"/>
</g>
<defs>
<clipPath id="clip0_52_5374">
<rect width="36" height="36" fill="white" transform="translate(8 8)"/>
</clipPath>
</defs>
</svg>
