<svg width="52" height="52" viewBox="0 0 52 52" fill="none" xmlns="http://www.w3.org/2000/svg">
<rect width="52" height="52" rx="26" fill="#51463A"/>
<path d="M33.3785 10.2934L32.5688 9H27.6687V20.6489L27.652 32.0273C27.6603 32.1119 27.6687 32.2049 27.6687 32.2894C27.6687 35.1382 25.3814 37.463 22.5599 37.463C19.7383 37.463 17.4511 35.1467 17.4511 32.2894C17.4511 29.4406 19.7383 27.1159 22.5599 27.1159C23.1442 27.1159 23.7119 27.2258 24.2378 27.4117V21.731C23.6952 21.638 23.1359 21.5873 22.5599 21.5873C16.7415 21.5957 12 26.3973 12 32.2979C12 38.1984 16.7415 43 22.5682 43C28.3949 43 33.1364 38.1984 33.1364 32.2979V18.7638C35.2484 20.9025 37.9781 22.9906 41 23.6584V17.8508C37.7193 16.3799 34.4554 12.0348 33.3785 10.2934Z" fill="#F4F4F2"/>
</svg>
