<svg width="40" height="40" viewBox="0 0 40 40" fill="none" xmlns="http://www.w3.org/2000/svg">
<g clip-path="url(#clip0_17_5234)">
<path fill-rule="evenodd" clip-rule="evenodd" d="M40 17.6819C40 8.83697 31.0457 1.66675 19.9999 1.66675C8.95416 1.66675 -0.000288602 8.83697 6.97639e-09 17.6819C6.97639e-09 25.5659 7.11453 32.119 16.4831 33.45L16.4873 33.4506C16.7074 33.4817 16.9293 33.5092 17.1519 33.5347C19.1432 33.9495 18.8138 35.6613 18.5394 37.0876C18.3742 37.946 18.2289 38.7009 18.6214 39.0076C19.8229 39.9466 28.9264 33.8603 34.4571 28.7481C35.2576 28.0778 35.9856 27.3517 36.6321 26.5782L36.6438 26.5655C36.7981 26.3955 36.9205 26.2417 37.0141 26.1024C38.9067 23.656 40 20.7714 40 17.6819ZM12.4302 22.7894H8.39647C7.8227 22.7894 7.35341 22.3199 7.35341 21.746V14.0098C7.35341 13.4361 7.8227 12.9668 8.39647 12.9668H8.48349C9.05726 12.9668 9.52655 13.4361 9.52655 14.0098V20.6161H12.4302C13.0039 20.6161 13.4732 21.0854 13.4732 21.6592V21.7462C13.4732 22.3199 13.0039 22.7894 12.4302 22.7894ZM33.3913 17.8532V17.9402C33.3913 18.5138 32.9219 18.9833 32.3481 18.983H29.4446V20.6346H32.3481C32.9219 20.6346 33.3913 21.1039 33.3913 21.6776V21.7646C33.3913 22.3384 32.9219 22.8079 32.3481 22.8079H28.3144C27.7407 22.8079 27.2714 22.3384 27.2714 21.7646V14.0284C27.2714 13.4547 27.7407 12.9854 28.3144 12.9854H32.3481C32.9219 12.9854 33.3913 13.4547 33.3913 14.0284V14.1155C33.3913 14.6892 32.9219 15.1585 32.3481 15.1585H29.4446V16.8101H32.3481C32.9219 16.8101 33.3913 17.2794 33.3913 17.8532ZM25.6341 22.4784C25.5721 22.5539 25.4843 22.6179 25.3799 22.6676C25.23 22.7476 25.0626 22.7895 24.8926 22.7894H24.8056C24.6657 22.7894 24.5321 22.7614 24.4099 22.7109C24.2509 22.6513 24.1081 22.5537 24.0038 22.4114C23.9762 22.3782 23.9506 22.343 23.9272 22.3067L20.1299 17.1201V21.7463C20.1299 22.3201 19.6606 22.7895 19.0868 22.7895H18.9998C18.4259 22.7895 17.9566 22.3201 17.9566 21.7463V14.0101C17.9566 13.4364 18.426 12.9671 18.9998 12.9671H19.0868C19.4733 12.9671 19.8124 13.1801 19.9925 13.4945L23.7627 18.5513V14.0101C23.7627 13.4364 24.232 12.9671 24.8057 12.9671H24.8927C25.4667 12.9671 25.9359 13.4364 25.9359 14.0101V21.7463C25.9358 22.0204 25.8271 22.2838 25.6341 22.4784ZM15.4452 22.7894H15.3582C14.7844 22.7894 14.315 22.3199 14.315 21.7462V14.01C14.315 13.4362 14.7844 12.9669 15.3582 12.9669H15.4452C16.019 12.9669 16.4882 13.4362 16.4882 14.01V21.7462C16.4882 22.3199 16.019 22.7894 15.4452 22.7894Z" fill="#483E3B"/>
</g>
<defs>
<clipPath id="clip0_17_5234">
<rect width="40" height="40" fill="white"/>
</clipPath>
</defs>
</svg>
