<svg width="20" height="20" viewBox="0 0 20 20" fill="none" xmlns="http://www.w3.org/2000/svg">
<g clip-path="url(#clip0_2_5249)">
<path fill-rule="evenodd" clip-rule="evenodd" d="M20 8.84083C20 4.41837 15.5228 0.833252 9.99996 0.833252C4.47708 0.833252 -0.000144301 4.41837 3.4882e-09 8.84083C3.4882e-09 12.7828 3.55726 16.0594 8.24157 16.7249L8.24366 16.7252C8.3537 16.7407 8.46467 16.7545 8.57593 16.7672C9.57161 16.9746 9.40692 17.8305 9.26969 18.5437C9.1871 18.9729 9.11446 19.3503 9.31068 19.5037C9.91143 19.9732 14.4632 16.93 17.2286 14.374C17.6288 14.0388 17.9928 13.6757 18.3161 13.289L18.3219 13.2826C18.399 13.1976 18.4602 13.1207 18.5071 13.0511C19.4534 11.8279 20 10.3856 20 8.84083ZM6.21508 11.3946H4.19824C3.91135 11.3946 3.67671 11.1599 3.67671 10.8729V7.00479C3.67671 6.71791 3.91135 6.48326 4.19824 6.48326H4.24174C4.52863 6.48326 4.76327 6.71791 4.76327 7.00479V10.3079H6.21508C6.50197 10.3079 6.73661 10.5426 6.73661 10.8295V10.873C6.73661 11.1599 6.50197 11.3946 6.21508 11.3946ZM16.6957 8.92647V8.96998C16.6957 9.25679 16.4609 9.49151 16.1741 9.49136H14.7223V10.3172H16.1741C16.4609 10.3172 16.6957 10.5518 16.6957 10.8387V10.8822C16.6957 11.1691 16.4609 11.4038 16.1741 11.4038H14.1572C13.8703 11.4038 13.6357 11.1691 13.6357 10.8822V7.0141C13.6357 6.72722 13.8703 6.49257 14.1572 6.49257H16.1741C16.4609 6.49257 16.6957 6.72722 16.6957 7.0141V7.05761C16.6957 7.34449 16.4609 7.57914 16.1741 7.57914H14.7223V8.40494H16.1741C16.4609 8.40494 16.6957 8.63959 16.6957 8.92647ZM12.817 11.2391C12.7861 11.2768 12.7421 11.3088 12.69 11.3337C12.615 11.3737 12.5313 11.3946 12.4463 11.3946H12.4028C12.3329 11.3946 12.2661 11.3806 12.2049 11.3553C12.1254 11.3255 12.0541 11.2767 12.0019 11.2056C11.9881 11.189 11.9753 11.1714 11.9636 11.1532L10.0649 8.55993V10.873C10.0649 11.1599 9.83029 11.3946 9.5434 11.3946H9.49989C9.21294 11.3946 8.97829 11.1599 8.97829 10.873V7.00494C8.97829 6.71805 9.21301 6.48341 9.49989 6.48341H9.5434C9.73663 6.48341 9.90619 6.58991 9.99624 6.74713L11.8813 9.27555V7.00494C11.8813 6.71805 12.116 6.48341 12.4029 6.48341H12.4464C12.7333 6.48341 12.968 6.71805 12.968 7.00494V10.873C12.9679 11.0101 12.9135 11.1418 12.817 11.2391ZM7.7226 11.3946H7.67909C7.3922 11.3946 7.15749 11.1599 7.15749 10.873V7.00486C7.15749 6.71798 7.3922 6.48334 7.67909 6.48334H7.7226C8.00948 6.48334 8.24412 6.71798 8.24412 7.00486V10.873C8.24412 11.1599 8.00948 11.3946 7.7226 11.3946Z" fill="#F9F6F3"/>
</g>
<defs>
<clipPath id="clip0_2_5249">
<rect width="20" height="20" fill="white"/>
</clipPath>
</defs>
</svg>
