<svg width="52" height="52" viewBox="0 0 52 52" fill="none" xmlns="http://www.w3.org/2000/svg">
<rect width="52" height="52" rx="26" fill="#51463A"/>
<g clip-path="url(#clip0_52_5367)">
<path d="M26 8C35.9411 8 44 16.0589 44 26C44 35.2028 37.0933 42.7916 28.1807 43.8681V31.5005L33.0501 31.5005L34.0602 26H28.1807V24.0546C28.1807 22.6013 28.4658 21.5951 29.1198 20.9523C29.7738 20.3094 30.7968 20.0299 32.2726 20.0299C32.6461 20.0299 32.9899 20.0336 33.2949 20.041C33.7386 20.0518 34.1003 20.0705 34.3521 20.097V15.1107C34.2514 15.0828 34.1326 15.0548 33.9996 15.0273C33.6981 14.965 33.3233 14.9049 32.9204 14.8521C32.0785 14.7418 31.1139 14.6635 30.4391 14.6635C27.7136 14.6635 25.6538 15.2465 24.216 16.4543C22.4808 17.9119 21.6516 20.2793 21.6516 23.6298V26H17.9399V31.5005H21.6516V43.4699C13.8115 41.5248 8 34.4416 8 26C8 16.0589 16.0589 8 26 8Z" fill="#F9F6F3"/>
</g>
<defs>
<clipPath id="clip0_52_5367">
<rect width="36" height="36" fill="white" transform="translate(8 8)"/>
</clipPath>
</defs>
</svg>
