<svg width="20" height="20" viewBox="0 0 20 20" fill="none" xmlns="http://www.w3.org/2000/svg">
<path d="M14.5322 0.760816L14.0576 0H11.1851V6.85231L11.1753 13.5455C11.1802 13.5952 11.1851 13.6499 11.1851 13.6997C11.1851 15.3754 9.84427 16.7429 8.19027 16.7429C6.53627 16.7429 5.19545 15.3804 5.19545 13.6997C5.19545 12.0239 6.53627 10.6564 8.19027 10.6564C8.53282 10.6564 8.86557 10.721 9.17386 10.8304V7.48881C8.85579 7.43411 8.52792 7.40428 8.19027 7.40428C4.77951 7.40925 2 10.2337 2 13.7046C2 17.1755 4.7795 20 8.19516 20C11.6108 20 14.3903 17.1755 14.3903 13.7046V5.74341C15.6284 7.00149 17.2286 8.22974 19 8.62258V5.20636C17.0769 4.34112 15.1635 1.78518 14.5322 0.760816Z" fill="#F9F6F3"/>
</svg>
